{"title":"Bruno Mars - Gorilla [Music Video] 1080p [Sbyky]","uid":9101121,"size":127607043,"categoryP":"video","categoryS":"music_videos","magnet":"?xt=urn:btih:4cf8622d6d9ef3d703054e904b38e33323eab3e6&amp;dn=Bruno+Mars+-+Gorilla+%5BMusic+Video%5D+1080p+%5BSbyky%5D&amp;tr=udp%3A%2F%2Ftracker.openbittorrent.com%3A80&amp;tr=udp%3A%2F%2Fopen.demonii.com%3A1337&amp;tr=udp%3A%2F%2Ftracker.coppersurfer.tk%3A6969&amp;tr=udp%3A%2F%2Fexodus.desync.com%3A6969","seeders":1,"leechers":0,"uploader":"Sbyky","files":1,"time":1382770953,"description":"[IMG]http://cdn.piczend.com/images/otcpvfSt/1382762523_gorilla.jpg[/IMG]\n\nGeneral\nComplete name                            : Bruno Mars - Gorilla [Music Video] 1080p [Sbyky].MP4\nFormat                                   : MPEG-4\nFormat profile                           : Base Media / Version 2\nCodec ID                                 : mp42\nFile size                                : 122 MiB\nDuration                                 : 6mn 2s\nOverall bit rate mode                    : Variable\nOverall bit rate                         : 2 813 Kbps\nEncoded date                             : UTC 2013-10-16 07:00:06\nTagged date                              : UTC 2013-10-16 07:00:06\n\nVideo\nID                                       : 1\nFormat                                   : AVC\nFormat/Info                              : Advanced Video Codec\nFormat profile                           : &lt;a class=&quot;__cf_email__&quot; href=&quot;/cdn-cgi/l/email-protection&quot; data-cfemail=&quot;6921000e0129255d4759&quot;&gt;[email&amp;#160;protected]&lt;/a&gt;&lt;script cf-hash='f9e31' type=&quot;text/javascript&quot;&gt;\n/* &lt;![CDATA[ */!function(){try{var t=&quot;currentScript&quot;in document?document.currentScript:function(){for(var t=document.getElementsByTagName(&quot;script&quot;),e=t.length;e--;)if(t[e].getAttribute(&quot;cf-hash&quot;))return t[e]}();if(t&amp;&amp;t.previousSibling){var e,r,n,i,c=t.previousSibling,a=c.getAttribute(&quot;data-cfemail&quot;);if(a){for(e=&quot;&quot;,r=parseInt(a.substr(0,2),16),n=2;a.length-n;n+=2)i=parseInt(a.substr(n,2),16)^r,e+=String.fromCharCode(i);e=document.createTextNode(e),c.parentNode.replaceChild(e,c)}}}catch(u){}}();/* ]]&gt; */&lt;/script&gt;\nFormat settings, CABAC                   : Yes\nFormat settings, ReFrames                : 2 frames\nCodec ID                                 : avc1\nCodec ID/Info                            : Advanced Video Coding\nDuration                                 : 6mn 2s\nSource duration                          : 6mn 2s\nSource_Duration_LastFrame                : -42ms\nBit rate                                 : 2 558 Kbps\nWidth                                    : 1 920 pixels\nHeight                                   : 1 080 pixels\nDisplay aspect ratio                     : 16:9\nFrame rate mode                          : Constant\nFrame rate                               : 23.976 fps\nColor space                              : YUV\nChroma subsampling                       : 4:2:0\nBit depth                                : 8 bits\nScan type                                : Progressive\nBits/(Pixel*Frame)                       : 0.051\nStream size                              : 111 MiB (91%)\nSource stream size                       : 111 MiB (91%)\nEncoded date                             : UTC 2013-10-16 07:00:06\nTagged date                              : UTC 2013-10-16 07:00:06\n\nAudio\nID                                       : 2\nFormat                                   : AAC\nFormat/Info                              : Advanced Audio Codec\nFormat profile                           : LC\nCodec ID                                 : 40\nDuration                                 : 6mn 2s\nBit rate mode                            : Variable\nBit rate                                 : 254 Kbps\nChannel(s)                               : 2 channels\nChannel positions                        : Front: L R\nSampling rate                            : 44.1 KHz\nCompression mode                         : Lossy\nStream size                              : 11.0 MiB (9%)\nEncoded date                             : UTC 2013-10-16 07:00:02\nTagged date                              : UTC 2013-10-16 07:00:02\n\nShared By Sbyky\n[IMG]http://cdn.piczend.com/images/X3Ag13N3/1379453786_saythanks.gif[/IMG]\n[IMG]http://cdn.piczend.com/images/gGqhX2S8/1379453780_keepseeding.gif[/IMG]","torrent":{"xt":"urn:btih:4cf8622d6d9ef3d703054e904b38e33323eab3e6","amp;dn":"Bruno+Mars+-+Gorilla+%5BMusic+Video%5D+1080p+%5BSbyky%5D","amp;tr":["udp%3A%2F%2Ftracker.openbittorrent.com%3A80","udp%3A%2F%2Fopen.demonii.com%3A1337","udp%3A%2F%2Ftracker.coppersurfer.tk%3A6969","udp%3A%2F%2Fexodus.desync.com%3A6969"],"infoHash":"4cf8622d6d9ef3d703054e904b38e33323eab3e6","infoHashBuffer":{"type":"Buffer","data":[76,248,98,45,109,158,243,215,3,5,78,144,75,56,227,51,35,234,179,230]},"announce":[],"urlList":[]}}